<svg width="29" height="23" viewBox="0 0 29 23" fill="none" xmlns="http://www.w3.org/2000/svg">
<path d="M0.398468 22.7825V17.1106C0.398468 15.2043 0.710968 13.22 1.33597 11.1575C1.99222 9.06372 2.92972 7.06372 4.14847 5.15747C5.36722 3.21997 6.83597 1.5481 8.55472 0.141846L13.4766 3.56372C12.0391 5.62622 10.9297 7.75122 10.1485 9.93872C9.36722 12.095 8.97659 14.4387 8.97659 16.97V22.7825H0.398468ZM15.1641 22.7825V17.1106C15.1641 15.2043 15.4766 13.22 16.1016 11.1575C16.7578 9.06372 17.6953 7.06372 18.9141 5.15747C20.1328 3.21997 21.6016 1.5481 23.3203 0.141846L28.2422 3.56372C26.8047 5.62622 25.6953 7.75122 24.9141 9.93872C24.1328 12.095 23.7422 14.4387 23.7422 16.97V22.7825H15.1641Z" fill="black"/>
</svg>
