<svg width="100" height="100" viewBox="0 0 100 100" fill="none" xmlns="http://www.w3.org/2000/svg">
<circle cx="50" cy="50" r="50" fill="#DD4A2D"/>
<path d="M49.897 21C36.7203 21 26 31.7201 26 44.897C26 57.6543 47.7856 84.0008 48.713 85.116C49.0056 85.4677 49.4394 85.6714 49.897 85.6714C50.3544 85.6714 50.7884 85.4679 51.081 85.116C52.0086 84.0006 73.794 57.6543 73.794 44.897C73.794 31.7201 63.074 21 49.897 21ZM49.897 81.688C47.9653 79.2759 43.9517 74.1367 39.9801 68.2616C32.849 57.7132 29.0796 49.6338 29.0796 44.897C29.0796 33.4181 38.4183 24.0796 49.897 24.0796C61.3757 24.0796 70.7144 33.4181 70.7144 44.897C70.7144 49.6336 66.9452 57.713 59.8139 68.2616C55.842 74.1367 51.8287 79.2759 49.897 81.688Z" fill="white"/>
<path d="M57.731 64.9264C57.0264 64.4503 56.069 64.6359 55.5931 65.3405C53.5152 68.4164 51.1874 71.6401 48.6745 74.9221C48.1575 75.5974 48.2857 76.5638 48.9609 77.0807C49.2401 77.2947 49.5692 77.3981 49.8959 77.3981C50.3586 77.3981 50.8165 77.1901 51.1195 76.7943C53.6694 73.4643 56.0331 70.1907 58.1449 67.0645C58.621 66.3598 58.4358 65.4025 57.731 64.9264Z" fill="white"/>
<path d="M49.8971 32.8051C42.9349 32.8051 37.2708 38.4693 37.2708 45.4314C37.2708 52.3935 42.9349 58.0577 49.8971 58.0577C56.8592 58.0577 62.5234 52.3935 62.5234 45.4314C62.5234 38.4693 56.8592 32.8051 49.8971 32.8051ZM49.8971 54.9781C44.633 54.9781 40.3503 50.6954 40.3503 45.4314C40.3503 40.1674 44.633 35.8847 49.8971 35.8847C55.1613 35.8847 59.4438 40.1674 59.4438 45.4314C59.4438 50.6954 55.1613 54.9781 49.8971 54.9781Z" fill="white"/>
</svg>
