<svg width="83" height="83" viewBox="0 0 83 83" fill="none" xmlns="http://www.w3.org/2000/svg">
<path d="M81.4979 74.2504L74.2248 66.9756C79.7161 59.9381 83 51.0986 83 41.5C83 18.6175 64.3825 0 41.5 0C18.6175 0 0 18.6175 0 41.5C0 64.3825 18.6175 83 41.5 83C51.0986 83 59.9381 79.7161 66.9756 74.2248L74.2501 81.4993C75.2195 82.4673 76.5059 83 77.8742 83C80.7015 83 83 80.7015 83 77.8742C83 76.5059 82.4673 75.2181 81.4979 74.2504ZM73.3576 63.649C72.3092 62.8779 70.5434 61.768 67.882 60.6342L62.4416 55.1938C63.5206 51.2552 64.1095 47.1094 64.2127 42.8387H80.2894C80.0257 50.5563 77.5034 57.7051 73.3576 63.649ZM80.2891 40.1615H64.2259V40.1613C64.0825 34.2575 63.0131 29.0539 61.4025 24.5265C67.8913 22.8465 71.6235 20.6349 73.3612 19.3566C77.5045 25.2991 80.0254 32.4465 80.2891 40.1615ZM53.1146 45.8668C53.6996 44.9017 54.2202 43.8949 54.6487 42.8387H61.5349C61.4467 46.3315 61.0129 49.7303 60.2364 52.9889L53.1146 45.8668ZM54.3327 50.8712L50.8709 54.333L48.1051 51.5672C49.3876 50.5484 50.547 49.3879 51.567 48.1054L54.3327 50.8712ZM55.5202 40.1613C55.9647 38.4464 56.2258 36.6578 56.2258 34.8063C56.2258 31.6349 55.5149 28.6336 54.2725 25.9226C55.8831 25.6949 57.3849 25.4326 58.7759 25.1408C60.3477 29.4744 61.4025 34.4704 61.5484 40.1613H55.5202ZM71.7509 17.2065C70.2395 18.3068 66.7226 20.41 60.4228 22.0085C56.4012 12.454 50.1214 6.22504 46.0689 2.95467C56.4187 4.17533 65.5312 9.47686 71.7509 17.2065ZM42.8387 3.83685C46.2778 6.33749 53.3704 12.4273 57.776 22.6135C56.2874 22.9174 54.6622 23.1825 52.9071 23.406C50.5257 19.6374 47.0141 16.6603 42.8387 14.9628V3.83685ZM36.8614 2.96394C33.8398 5.38165 29.6136 9.42598 25.9735 15.3148C23.1288 16.6094 20.6186 18.5022 18.5998 20.8395C14.7458 19.4997 12.4085 18.0578 11.2452 17.209C17.4528 9.49542 26.54 4.19951 36.8614 2.96394ZM40.1613 3.83151V14.0927C38.4464 13.6483 36.6578 13.3871 34.8063 13.3871C33.1999 13.3871 31.6416 13.5785 30.1356 13.9159C33.833 8.82745 37.8332 5.51154 40.1613 3.83151ZM9.6402 19.3541C10.9092 20.2857 13.2333 21.7169 16.9054 23.077C14.6884 26.4489 13.3871 30.4772 13.3871 34.8066C13.3871 36.6581 13.6483 38.4467 14.0927 40.1615H2.71093C2.97463 32.4465 5.49692 25.298 9.6402 19.3541ZM2.71093 42.8387H14.9642C15.9923 45.3703 17.493 47.6567 19.3538 49.5993C19.8452 52.807 20.6054 55.7561 21.5533 58.4642C15.0699 60.1428 11.3736 62.3598 9.63739 63.6409C5.49551 57.6984 2.97463 50.5524 2.71093 42.8387ZM11.2412 65.7828C12.7405 64.6811 16.2133 62.5765 22.5078 60.9837C26.4945 70.6011 32.7515 76.7792 36.8333 80.0321C26.5198 78.7898 17.4421 73.4939 11.2412 65.7828ZM40.1613 79.1631C36.7169 76.665 29.6015 70.5713 25.1984 60.373C29.1933 59.5659 34.1358 58.9916 40.1613 58.9165V79.1631ZM40.1615 56.239C33.7237 56.318 28.4545 56.9525 24.1962 57.8468C23.5746 56.1322 23.0366 54.3113 22.6028 52.3864C26.0688 54.8002 30.2723 56.2258 34.8066 56.2258C36.6581 56.2258 38.4467 55.9647 40.1615 55.5202V56.239ZM34.8066 53.5486C24.4717 53.5486 16.0646 45.1415 16.0646 34.8066C16.0646 24.4717 24.4717 16.0646 34.8066 16.0646C45.1415 16.0646 53.5486 24.4717 53.5486 34.8066C53.5486 45.1415 45.1415 53.5486 34.8066 53.5486ZM42.8387 54.6487C43.8949 54.2188 44.9017 53.6996 45.8668 53.1146L49.2845 56.5323C47.2013 56.3675 45.0487 56.2725 42.8385 56.2444C42.8387 56.2447 42.8387 54.6487 42.8387 54.6487ZM42.8387 58.9219C46.1279 58.9646 49.2912 59.1588 52.2619 59.5094L56.2981 63.5456C51.9285 71.8496 45.9177 76.9419 42.8387 79.1657V58.9219ZM46.1454 80.0347C49.5257 77.3319 54.4066 72.5887 58.2767 65.5245L65.0707 72.3185C59.6919 76.4429 53.2085 79.1887 46.1454 80.0347ZM67.1471 70.609L52.764 56.2258L56.2258 52.764L70.609 67.1471C69.5286 68.372 68.372 69.5286 67.1471 70.609ZM77.8742 80.3225C77.2208 80.3225 76.6063 80.0681 76.1433 79.6051L69.0428 72.5046C70.2637 71.4189 71.4189 70.2637 72.5046 69.0428L79.6051 76.1433C80.0684 76.6066 80.3225 77.2208 80.3225 77.8742C80.3225 79.225 79.225 80.3225 77.8742 80.3225Z" fill="#DAD7D7"/>
<path d="M34.8066 18.7418C25.9482 18.7418 18.742 25.9482 18.742 34.8066C18.742 43.665 25.9482 50.8709 34.8066 50.8709C43.6649 50.8709 50.8711 43.6647 50.8711 34.8063C50.8711 25.9479 43.6649 18.7418 34.8066 18.7418ZM40.1615 47.0678C38.5203 47.788 36.7104 48.1937 34.8066 48.1937C32.9028 48.1937 31.0929 47.788 29.4516 47.0678V44.1775C29.4516 41.2242 31.8533 38.8225 34.8066 38.8225C37.7598 38.8225 40.1615 41.2242 40.1615 44.1775V47.0678ZM30.7904 30.7904C30.7904 28.5762 32.5924 26.7742 34.8066 26.7742C37.0207 26.7742 38.8228 28.5762 38.8228 30.7904C38.8228 33.0046 37.0207 34.8066 34.8066 34.8066C32.5924 34.8066 30.7904 33.0046 30.7904 30.7904ZM42.8387 45.4906V44.1775C42.8387 40.8132 40.7569 37.9297 37.8158 36.7357C39.9912 35.6286 41.5 33.3931 41.5 30.7904C41.5 27.0994 38.4972 24.0967 34.8063 24.0967C31.1153 24.0967 28.1129 27.0994 28.1129 30.7904C28.1129 33.3928 29.6217 35.6286 31.7971 36.7357C28.8559 37.9299 26.7741 40.8135 26.7741 44.1775V45.4906C23.5305 43.0448 21.4192 39.1734 21.4192 34.8063C21.4192 27.4247 27.4247 21.4192 34.8066 21.4192C42.1882 21.4192 48.1937 27.4247 48.1937 34.8063C48.1937 39.1731 46.0824 43.0448 42.8387 45.4906Z" fill="#DAD7D7"/>
</svg>
