<svg width="106" height="65" viewBox="0 0 106 65" fill="none" xmlns="http://www.w3.org/2000/svg">
<path d="M104.283 48.2133H104.168V38.293C104.168 35.873 103.228 33.5976 101.52 31.8864L100.325 30.6887L96.0545 15C95.2013 11.8652 92.3402 9.67563 89.097 9.67563H76.6955V4.05556C76.6955 2.09495 75.1036 0.5 73.1469 0.5H3.5486C1.59183 0.5 0 2.09495 0 4.05556V48.0986C0 50.0592 1.59183 51.6541 3.5486 51.6541H9.98758C9.68767 52.3047 9.46239 52.9963 9.32319 53.7186H5.38013C4.43162 53.7186 3.66307 54.4887 3.66307 55.4391C3.66307 56.3894 4.43162 57.1595 5.38013 57.1595H9.32319C10.1279 61.3356 13.8015 64.5 18.2009 64.5C22.6002 64.5 26.2738 61.3356 27.0785 57.1595H53.5598C54.1658 58.2525 55.329 58.9946 56.6631 58.9946H71.3153C72.6494 58.9946 73.8126 58.2525 74.4186 57.1595H78.9215C79.7262 61.3356 83.3998 64.5 87.7991 64.5C92.1985 64.5 95.8721 61.3356 96.6768 57.1595H104.283C105.231 57.1595 106 56.3894 106 55.4391V49.9337C106 48.9833 105.231 48.2133 104.283 48.2133ZM96.5404 29.8618L84.1361 29.862C84.0731 29.862 84.0216 29.8104 84.0216 29.7473V18.6219H93.2937C93.356 18.6219 93.4174 18.6182 93.478 18.6115L96.5404 29.8618ZM89.097 13.1165C90.532 13.1165 91.8216 13.9368 92.4579 15.181H82.3045C81.356 15.181 80.5875 15.9511 80.5875 16.9014V29.7473C80.5875 31.7079 82.1793 33.3029 84.1361 33.3029L98.077 33.3026L99.0915 34.3195C100.151 35.3809 100.734 36.7919 100.734 38.293V42.7079H98.7883C97.8398 42.7079 97.0713 43.4779 97.0713 44.4283C97.0713 45.3787 97.8398 46.1487 98.7883 46.1487H100.734V48.2133H93.2937C93.2793 48.2133 93.2651 48.2151 93.2507 48.2156C91.7337 47.0633 89.8452 46.3781 87.7991 46.3781C85.7531 46.3781 83.8645 47.0633 82.3476 48.2156C82.3331 48.2151 82.319 48.2133 82.3045 48.2133H76.6955V13.1165H89.097ZM78.9215 53.7186H74.8639V51.7688C74.8639 51.7301 74.8594 51.6924 74.8582 51.6541H74.9784H79.5859C79.2859 52.3047 79.0607 52.9963 78.9215 53.7186ZM3.43413 48.0986V36.9731H61.6753L59.1121 39.5414C58.4415 40.2135 58.4415 41.3026 59.1121 41.9745C59.4475 42.3104 59.887 42.4783 60.3264 42.4783C60.7657 42.4783 61.2053 42.3104 61.5407 41.9745L67.0353 36.4691C67.0417 36.4627 67.0472 36.4556 67.0534 36.449C67.0863 36.415 67.1186 36.3801 67.1486 36.3434C67.1662 36.3219 67.1816 36.2994 67.198 36.2771C67.215 36.2542 67.2328 36.232 67.2486 36.2081C67.2656 36.1826 67.2805 36.1563 67.296 36.1301C67.3091 36.1081 67.323 36.0865 67.3352 36.0638C67.3494 36.0374 67.3613 36.0101 67.3739 35.9833C67.3851 35.9594 67.397 35.9358 67.4073 35.9113C67.4183 35.8849 67.427 35.858 67.4366 35.8312C67.446 35.8051 67.4561 35.7791 67.4641 35.7525C67.4723 35.7255 67.4783 35.6979 67.4851 35.6704C67.4918 35.6433 67.4996 35.6167 67.5048 35.5894C67.5112 35.5571 67.5151 35.5245 67.5197 35.4919C67.5229 35.469 67.5273 35.4463 67.5295 35.4231C67.5408 35.3098 67.5408 35.1958 67.5295 35.0825C67.5273 35.0591 67.5229 35.0366 67.5197 35.0137C67.5151 34.9811 67.5112 34.9485 67.5048 34.9162C67.4993 34.8886 67.4918 34.862 67.4851 34.8352C67.4783 34.8077 67.4723 34.7801 67.4641 34.7531C67.4558 34.7262 67.446 34.7003 67.4366 34.6742C67.427 34.6476 67.4183 34.6205 67.4075 34.5943C67.3975 34.5698 67.3853 34.5462 67.3741 34.5221C67.3615 34.4952 67.3496 34.4682 67.3354 34.4418C67.3233 34.4191 67.3093 34.3975 67.2963 34.3755C67.2807 34.3493 67.266 34.323 67.2489 34.2975C67.2331 34.2736 67.2152 34.2514 67.1983 34.2285C67.1818 34.2064 67.1664 34.1837 67.1488 34.1622C67.1188 34.1255 67.0866 34.0906 67.0536 34.0566C67.0472 34.05 67.0419 34.0429 67.0355 34.0365L61.5409 28.5311C60.8701 27.8594 59.7831 27.8594 59.1125 28.5311C58.4419 29.2032 58.4419 30.2923 59.1125 30.9642L61.6753 33.5323H3.43413V4.05556C3.43413 3.99247 3.48564 3.94086 3.5486 3.94086H73.1469C73.2098 3.94086 73.2613 3.99247 73.2613 4.05556V48.2133H48.4781H23.6948C23.6804 48.2133 23.6666 48.2151 23.6522 48.2153C22.1355 47.0633 20.2467 46.3781 18.2009 46.3781C16.155 46.3781 14.2663 47.0633 12.7493 48.2156C12.7347 48.2151 12.7205 48.2133 12.7058 48.2133H3.5486C3.48564 48.2133 3.43413 48.1617 3.43413 48.0986ZM53.1145 51.7688V53.7186H27.0785C26.9393 52.9963 26.7141 52.3047 26.4141 51.6541H53.1202C53.119 51.6924 53.1145 51.7301 53.1145 51.7688ZM18.2009 61.0591C15.1079 61.0591 12.5918 58.5381 12.5918 55.4391C12.5918 52.34 15.1079 49.819 18.2009 49.819C21.2939 49.819 23.8099 52.34 23.8099 55.4391C23.8099 58.5381 21.2939 61.0591 18.2009 61.0591ZM71.3153 55.5538H56.6631C56.6001 55.5538 56.5486 55.5022 56.5486 55.4391V51.7688C56.5486 51.7057 56.6001 51.6541 56.6631 51.6541H71.3153C71.3783 51.6541 71.4298 51.7057 71.4298 51.7688V55.4301C71.4298 55.4331 71.4293 55.4361 71.4293 55.4391V55.4409C71.4284 55.5031 71.3778 55.5538 71.3153 55.5538ZM87.7991 61.0591C84.7061 61.0591 82.1901 58.5381 82.1901 55.4391C82.1901 52.34 84.7061 49.819 87.7991 49.819C90.8921 49.819 93.4082 52.34 93.4082 55.4391C93.4082 58.5381 90.8921 61.0591 87.7991 61.0591ZM102.566 53.7186H96.6768C96.5376 52.9963 96.3123 52.3047 96.0124 51.6541H102.566V53.7186Z" fill="#DAD7D7"/>
</svg>
