<svg width="58" height="16" viewBox="0 0 58 16" fill="none" xmlns="http://www.w3.org/2000/svg">
<path d="M8 0.736328L9.68386 5.9187H15.1329L10.7245 9.12158L12.4084 14.304L8 11.1011L3.59161 14.304L5.27547 9.12158L0.867076 5.9187H6.31614L8 0.736328Z" fill="white"/>
<path d="M29 0.736328L30.6839 5.9187H36.1329L31.7245 9.12158L33.4084 14.304L29 11.1011L24.5916 14.304L26.2755 9.12158L21.8671 5.9187H27.3161L29 0.736328Z" fill="white"/>
<path d="M50 0.736328L51.6839 5.9187H57.1329L52.7245 9.12158L54.4084 14.304L50 11.1011L45.5916 14.304L47.2755 9.12158L42.8671 5.9187H48.3161L50 0.736328Z" fill="white"/>
</svg>
