<svg width="100" height="100" viewBox="0 0 100 100" fill="none" xmlns="http://www.w3.org/2000/svg">
<circle cx="50" cy="50" r="50" fill="#DD4A2D"/>
<path fill-rule="evenodd" clip-rule="evenodd" d="M69.8774 62.0771C68.4986 60.3408 66.2597 57.8248 64.3429 57.5864C63.1767 57.4415 61.8366 58.4079 60.5158 59.3196C60.2581 59.4484 58.2672 60.6339 58.0256 60.7048C56.7499 61.0688 54.0278 61.1751 52.3816 59.6739C50.7967 58.2243 48.2904 55.5408 46.2673 53.0828C44.3344 50.5508 42.3081 47.5065 41.2708 45.638C40.1884 43.7019 40.968 41.1409 41.638 40.0134C41.7605 39.8104 43.2423 38.2867 43.5741 37.9323L43.6225 37.9903C44.8498 36.9594 46.1352 35.9124 46.2802 34.7785C46.5186 32.8907 44.5889 30.1428 43.2101 28.4032C41.8313 26.6604 39.6955 23.6097 36.7865 24.0414C35.6912 24.2024 34.7473 24.5858 33.8163 25.1366L33.7906 25.1077C33.7712 25.1205 33.681 25.1914 33.6359 25.2269C33.6069 25.243 33.5812 25.2526 33.5554 25.2687L33.5651 25.2816C33.0303 25.694 31.5033 26.8344 31.3294 26.989C29.4416 28.6674 26.6003 32.6201 28.7973 39.7299C30.4274 45.0131 33.9033 51.2176 38.6389 57.493L38.6131 57.5156C38.845 57.8184 39.0834 58.0922 39.325 58.3854C39.5505 58.685 39.7728 58.9813 40.0048 59.2777L40.037 59.2551C45.0625 65.3083 50.3328 70.1469 55.1424 73.0011C61.6175 76.8411 66.221 75.1112 68.3472 73.7356C68.5469 73.6035 70.0674 72.4213 70.5829 72.0315L70.5958 72.0443C70.6151 72.025 70.628 71.9992 70.6537 71.9799C70.6924 71.9509 70.7762 71.8865 70.7923 71.8736L70.7729 71.8478C71.5525 71.094 72.1775 70.2887 72.6092 69.2739C73.7399 66.6033 71.2562 63.82 69.8774 62.0771Z" fill="white"/>
</svg>
