<svg width="78" height="31" viewBox="0 0 78 31" fill="none" xmlns="http://www.w3.org/2000/svg">
<path d="M28.3164 12.2831L20.9569 17.3281L23.0503 26.0017L15.978 20.5614L8.37578 25.2326L11.3644 16.8253L4.57253 11.0387L13.4919 11.283L16.8965 3.03543L19.4203 11.5937L28.3164 12.2831Z" fill="#052941"/>
<path d="M45.5516 5.51831L47.9263 12.2499L55.0622 12.4281L49.3939 16.7667L51.4295 23.6085L45.5516 19.5583L39.6738 23.6085L41.7094 16.7667L36.0411 12.4281L43.177 12.2499L45.5516 5.51831Z" fill="#052941"/>
<path d="M75.9816 13.5772L71.5659 16.6042L72.822 21.8084L68.5786 18.5442L64.0173 21.3469L65.8104 16.3026L61.7353 12.8306L67.0869 12.9772L69.1297 8.02863L70.644 13.1636L75.9816 13.5772Z" fill="#052941"/>
</svg>
