<svg width="79" height="91" viewBox="0 0 79 91" fill="none" xmlns="http://www.w3.org/2000/svg">
<path d="M39.4041 0L0 22.75V68.25L39.4041 91L78.8081 68.25V22.75L39.4041 0ZM39.4041 6.27082L52.3175 13.7266L21.0597 31.7732L8.14628 24.3174L39.4041 6.27082ZM36.6886 83.1614L5.43085 65.1146V29.021L36.6886 47.0676V83.1614ZM26.4906 34.9086L57.7484 16.8618L70.6619 24.3176L39.4041 42.3644L26.4906 34.9086ZM73.3773 65.1146L42.1195 83.1614V47.0676L73.3775 29.0208V65.1146H73.3773Z" fill="#DAD7D7"/>
<path d="M48.2888 47.6067V62.929L67.2078 52.0061V36.6838L48.2888 47.6067ZM61.7769 48.8707L53.7197 53.5226V50.7423L61.7769 46.0904V48.8707Z" fill="#DAD7D7"/>
</svg>
